<svg xmlns="http://www.w3.org/2000/svg" width="136" height="136" viewBox="0 0 136 136" role="img" aria-label="SeguraHome Icon Dark">
  <defs>
    <linearGradient id="greenGradDark" x1="0" y1="0" x2="1" y2="1">
      <stop offset="0%" stop-color="#00A050"/>
      <stop offset="100%" stop-color="#007A3D"/>
    </linearGradient>

    <filter id="softShadowDark" x="-30%" y="-30%" width="160%" height="160%">
      <feDropShadow dx="0" dy="10" stdDeviation="10" flood-color="#000000" flood-opacity="0.35"/>
    </filter>
  </defs>

  <!-- Base -->
  <rect x="0" y="0" width="136" height="136" rx="44" fill="#000000" filter="url(#softShadowDark)"/>

  <!-- Shield -->
  <path d="M68 26 L102 40 V70
           C102 95 86 111 68 118
           C50 111 34 95 34 70 V40 L68 26 Z"
        fill="url(#greenGradDark)"/>

  <!-- House -->
  <path d="M68 46 L86 60 V98 H50 V60 L68 46 Z" fill="#FFFFFF" opacity="0.98"/>
  <path d="M60 98 V78 H76 V98" fill="#00A050" opacity="0.22"/>

  <!-- Tech Details -->
  <path d="M42 58 H32" stroke="#FFFFFF" stroke-width="3" stroke-linecap="round" opacity="0.85"/>
  <path d="M104 58 H94" stroke="#FFFFFF" stroke-width="3" stroke-linecap="round" opacity="0.85"/>
  <circle cx="32" cy="58" r="3.2" fill="#FFFFFF" opacity="0.9"/>
  <circle cx="104" cy="58" r="3.2" fill="#FFFFFF" opacity="0.9"/>
</svg>
