<svg xmlns="http://www.w3.org/2000/svg" width="136" height="136" viewBox="0 0 136 136" role="img" aria-label="SeguraHome Logo (Inverted)">
  <defs>
    <linearGradient id="greenGrad2" x1="0" y1="0" x2="1" y2="1">
      <stop offset="0%" stop-color="#00A050"/>
      <stop offset="100%" stop-color="#007A3D"/>
    </linearGradient>

    <filter id="softShadow" x="-30%" y="-30%" width="160%" height="160%">
      <feDropShadow dx="0" dy="10" stdDeviation="10" flood-color="#000000" flood-opacity="0.22"/>
    </filter>
  </defs>

  <!-- Icon -->
  <g filter="url(#softShadow)">
    <rect x="0" y="0" width="136" height="136" rx="44" fill="#F8FAFC"/>

    <!-- Shield -->
    <path d="M68 26 L102 40 V70
             C102 95 86 111 68 118
             C50 111 34 95 34 70 V40 L68 26 Z"
          fill="url(#greenGrad2)"/>

    <path d="M68 46 L86 60 V98 H50 V60 L68 46 Z" fill="#0B1220" opacity="0.92"/>
    <path d="M60 98 V78 H76 V98" fill="#0B1220" opacity="0.24"/>

    <path d="M42 58 H32" stroke="#0B1220" stroke-width="3" stroke-linecap="round" opacity="0.85"/>
    <path d="M104 58 H94" stroke="#0B1220" stroke-width="3" stroke-linecap="round" opacity="0.85"/>
    <circle cx="32" cy="58" r="3.2" fill="#0B1220" opacity="0.9"/>
    <circle cx="104" cy="58" r="3.2" fill="#0B1220" opacity="0.9"/>
  </g>
</svg>
